<svg xmlns="http://www.w3.org/2000/svg" viewBox="0 0 1200 180" preserveAspectRatio="none">
  <defs>
    <linearGradient id="t" x1="0" x2="1" y1="0" y2="0">
      <stop offset="0" stop-color="#6c7cff" stop-opacity="0"/>
      <stop offset=".45" stop-color="#7b88ff" stop-opacity=".07"/>
      <stop offset="1" stop-color="#8995ff" stop-opacity=".2"/>
    </linearGradient>
    <linearGradient id="n" x1="0" x2="1" y1="0" y2="0">
      <stop offset="0" stop-color="#8995ff" stop-opacity="0"/>
      <stop offset=".5" stop-color="#8995ff" stop-opacity=".14"/>
      <stop offset="1" stop-color="#a8b2ff" stop-opacity=".42"/>
    </linearGradient>
  </defs>
  <g fill="none" stroke="url(#t)" stroke-width="1.1" stroke-linecap="round">
    <path d="M0 22h236l26 26h198l30-30h212l24 24h230l28 28h216"/>
    <path d="M0 62h150l28 28h286l26-26h180l30 30h198l22-22h280"/>
    <path d="M0 104h198l24-24h158l30 30h226l26 26h190l24-24h224"/>
    <path d="M0 148h268l26-26h174l28 28h204l26-26h188l30 30h256"/>
    <path d="M340 0v34M628 0v22M902 0v40M1096 0v26"/>
    <path d="M262 180v-30M556 180v-22M846 180v-36M1128 180v-28"/>
  </g>
  <g fill="url(#n)">
    <circle cx="262" cy="48" r="2.6"/><circle cx="460" cy="48" r="2.2"/>
    <circle cx="702" cy="18" r="2.6"/><circle cx="956" cy="42" r="2.4"/>
    <circle cx="178" cy="90" r="2.2"/><circle cx="464" cy="90" r="2.6"/>
    <circle cx="720" cy="64" r="2.4"/><circle cx="948" cy="94" r="2.6"/>
    <circle cx="222" cy="80" r="2.4"/><circle cx="606" cy="110" r="2.6"/>
    <circle cx="832" cy="136" r="2.4"/><circle cx="1046" cy="112" r="2.6"/>
    <circle cx="294" cy="122" r="2.4"/><circle cx="672" cy="150" r="2.6"/>
    <circle cx="902" cy="124" r="2.4"/><circle cx="1158" cy="154" r="2.6"/>
  </g>
</svg>
